<svg width="58" height="64" viewBox="0 0 58 64" fill="none" xmlns="http://www.w3.org/2000/svg">
<path fill-rule="evenodd" clip-rule="evenodd" d="M40.9567 41.2638C40.8586 41.5065 40.7037 41.7337 40.5023 41.9351L38.4419 43.9955L38.4316 44.0058C38.2302 44.2072 38.003 44.3621 37.7603 44.4602C37.5073 44.5687 37.2439 44.6255 36.9599 44.6255C36.6759 44.6255 36.4074 44.5687 36.1595 44.4602C35.9168 44.3518 35.6948 44.1969 35.5037 43.9955L34.1612 42.6684C34.0785 42.7045 33.9959 42.751 33.9185 42.7872C33.6913 42.8956 33.4537 42.9885 33.2265 43.0763C33.2162 43.0867 33.2059 43.0867 33.1904 43.0867C32.9632 43.1796 32.7205 43.2571 32.4571 43.3397C32.3745 43.3655 32.2919 43.3965 32.2041 43.412V45.0489C32.2041 45.3329 32.1473 45.6014 32.0492 45.8493C31.9511 46.092 31.7961 46.314 31.5948 46.5102L31.5741 46.5309C31.3727 46.722 31.1455 46.8769 30.9028 46.975C30.6549 47.0731 30.3916 47.1299 30.1231 47.1299H27.1797C26.8957 47.1299 26.6324 47.0731 26.3793 46.975C26.1366 46.8769 25.9094 46.722 25.708 46.5206C25.5066 46.3192 25.3517 46.092 25.2536 45.8493C25.1555 45.6014 25.0987 45.3381 25.0987 45.0489V43.1796C25.0058 43.1435 24.918 43.1176 24.825 43.0815C24.5823 42.9885 24.3448 42.8801 24.0969 42.7717C23.8542 42.6529 23.6167 42.5445 23.3895 42.4257C23.3172 42.3895 23.2449 42.3431 23.1726 42.3069L22.0211 43.4791L21.9953 43.5049C21.7939 43.696 21.5667 43.8406 21.324 43.9387C21.0813 44.0368 20.8179 44.0833 20.5442 44.0833C20.2706 44.0833 20.0072 44.0368 19.7645 43.9387C19.5218 43.8406 19.2946 43.7011 19.0932 43.5101C19.0829 43.4998 19.0726 43.4998 19.0726 43.4894L17.0174 41.4084C16.816 41.2174 16.6559 40.9902 16.5526 40.7475C16.4442 40.5048 16.3874 40.2311 16.3874 39.9367C16.3874 39.6527 16.4442 39.3842 16.5526 39.126C16.6611 38.873 16.816 38.6561 17.0174 38.4651L18.3341 37.1483C18.2877 37.0554 18.2515 36.9779 18.2154 36.8953C18.1173 36.6681 18.014 36.4305 17.9159 36.1775C17.8229 35.94 17.7351 35.6869 17.6629 35.4339C17.637 35.3513 17.6061 35.2635 17.5906 35.1809H15.9536C15.6696 35.1809 15.4011 35.1241 15.1533 35.026C14.9106 34.9279 14.6885 34.773 14.4923 34.5716L14.4716 34.5509C14.2806 34.3495 14.1257 34.1223 14.0275 33.8899C13.9294 33.6421 13.8726 33.3787 13.8726 33.1102V30.1669C13.8726 29.5833 14.074 29.0928 14.482 28.6952C14.6833 28.4938 14.9106 28.3389 15.1533 28.2408C15.4011 28.1427 15.6645 28.0858 15.9536 28.0858H17.8229C17.8591 27.9929 17.8849 27.9051 17.921 27.8122C18.014 27.5695 18.1224 27.3319 18.2309 27.0841C18.3496 26.8362 18.4581 26.6038 18.5768 26.3766C18.613 26.3043 18.6595 26.232 18.6956 26.1598L17.5234 25.0082L17.4976 24.9824C17.3066 24.781 17.162 24.5538 17.0639 24.3111C16.9657 24.0684 16.9193 23.8051 16.9193 23.5314C16.9193 23.2577 16.9657 22.9944 17.0639 22.7517C17.162 22.509 17.3014 22.2817 17.4924 22.0804C17.5028 22.07 17.5028 22.0597 17.5131 22.0597L19.5941 19.9994C19.7955 19.798 20.0227 19.6431 20.2654 19.5449C20.5184 19.4365 20.7818 19.3797 21.0658 19.3797C21.3498 19.3797 21.6183 19.4365 21.8662 19.5449C22.1089 19.6534 22.3309 19.8083 22.522 20.0097L23.8387 21.3264C23.9317 21.28 24.0091 21.2438 24.0918 21.2077C24.319 21.1096 24.5565 21.0063 24.8095 20.9082C25.0471 20.8152 25.3001 20.7274 25.5531 20.6552C25.6461 20.6293 25.7235 20.5984 25.8061 20.5829V18.9459C25.8061 18.6619 25.863 18.3934 25.9611 18.1456C26.0592 17.9029 26.2141 17.6808 26.4155 17.4846L26.4361 17.4639C26.6375 17.2729 26.8647 17.118 27.0971 17.0198C27.345 16.9217 27.6083 16.8649 27.8768 16.8649H30.8202C31.1042 16.8649 31.3675 16.9217 31.6206 17.0198C31.8633 17.118 32.0905 17.2729 32.2919 17.4743C32.4933 17.6756 32.6482 17.9029 32.7463 18.1456C32.8444 18.3934 32.9012 18.6568 32.9012 18.9459V20.8152C32.9941 20.8514 33.0819 20.8772 33.1749 20.9133C33.4176 21.0063 33.6551 21.1147 33.903 21.2232C34.1457 21.3419 34.3832 21.4504 34.6104 21.5691C34.6827 21.6053 34.755 21.6518 34.8273 21.6879L35.9788 20.5364C36.1802 20.335 36.4074 20.1801 36.6501 20.0716C36.9031 19.9632 37.1665 19.9064 37.4505 19.9064C37.7345 19.9064 37.9979 19.9632 38.2509 20.0716C38.5039 20.1801 38.7208 20.3247 38.9222 20.5364L40.9825 22.5967L40.9929 22.6071C41.1942 22.8085 41.3492 23.0357 41.4473 23.2784C41.5557 23.5314 41.6125 23.7947 41.6125 24.0787C41.6125 24.3628 41.5557 24.6313 41.4473 24.8791C41.3388 25.127 41.1839 25.3439 40.9825 25.5349L39.6658 26.8775C39.7019 26.9601 39.7484 27.0428 39.7845 27.1202C39.8775 27.3268 39.9756 27.554 40.0737 27.8018C40.084 27.8122 40.084 27.8225 40.084 27.838C40.177 28.0755 40.2648 28.3285 40.3371 28.5816C40.3629 28.6642 40.3939 28.752 40.4093 28.8346H42.0463C42.3303 28.8346 42.5988 28.8914 42.8467 28.9895C43.0893 29.0876 43.3114 29.2425 43.5076 29.4439L43.5283 29.4646C43.7193 29.666 43.8742 29.8932 43.9724 30.1255C44.0705 30.3734 44.1273 30.6368 44.1273 30.9053V33.8486C44.1273 34.1326 44.0705 34.396 43.9724 34.649C43.8742 34.8917 43.7193 35.1189 43.5179 35.3306C43.3166 35.532 43.0893 35.6869 42.8467 35.7851C42.5988 35.8832 42.3354 35.94 42.0463 35.94H40.177C40.1408 36.0329 40.115 36.1207 40.0789 36.2136C39.9859 36.4563 39.8878 36.6939 39.769 36.9417C39.6503 37.1844 39.5418 37.422 39.4231 37.6492C39.3869 37.7215 39.3404 37.7938 39.3043 37.8661L40.4558 39.0176C40.6572 39.219 40.8121 39.4462 40.9206 39.6889C41.029 39.9419 41.0858 40.2053 41.0858 40.4893C41.0858 40.7733 41.029 41.0366 40.9206 41.2897L40.9567 41.2638ZM23.72 59.9C17.162 58.6658 11.3992 55.1699 7.27331 50.2592C3.11646 45.3174 0.617188 38.9505 0.617188 32.0103C0.617188 25.4885 2.82213 19.4726 6.53489 14.6755C10.3199 9.77505 15.6748 6.14491 21.8507 4.54414L22.7698 8.08649C17.3943 9.48072 12.7314 12.641 9.43178 16.9114C6.20957 21.0838 4.29381 26.3198 4.29381 32.0103C4.29381 38.0675 6.46776 43.6134 10.0721 47.9045C13.5215 52.0097 18.2877 54.9789 23.7251 56.1562V52.3711L30.6395 58.0462L23.7251 63.7212L23.72 59.9ZM34.2799 4.12587C40.776 5.34969 46.4923 8.78877 50.613 13.6324C54.8318 18.5896 57.3776 25.0082 57.3776 32.0103C57.3776 38.1707 55.4153 43.8716 52.0795 48.5241C48.6559 53.3006 43.7865 56.9669 38.1063 58.893L37.5176 57.158L36.929 55.4229C37.0735 55.3765 37.2181 55.3248 37.3575 55.2732C42.1134 53.564 46.1928 50.4296 49.0897 46.3915C51.9917 42.3431 53.7009 37.3807 53.7009 32.0155C53.7009 25.9016 51.4908 20.3092 47.8245 16.0026C44.3803 11.9542 39.6554 9.03663 34.2748 7.86445V11.6289L27.3656 5.94869L34.2799 0.273682V4.12587ZM34.1353 32C34.1353 32.3563 34.0992 32.6971 34.0372 33.0276H34.0269C33.9649 33.3632 33.8617 33.6834 33.7377 33.9881C33.6035 34.3082 33.4486 34.6077 33.2678 34.8711C33.0974 35.1447 32.8857 35.3978 32.6585 35.625C32.421 35.8625 32.1783 36.0587 31.9046 36.2446C31.6412 36.415 31.3417 36.5803 31.0216 36.7145C31.0112 36.7249 30.9958 36.7249 30.9854 36.7352C30.6963 36.854 30.3864 36.9417 30.0663 37.0089C29.7306 37.0708 29.395 37.107 29.0387 37.107C28.6824 37.107 28.3416 37.0708 28.0111 37.0089C27.6754 36.9469 27.3553 36.8436 27.0506 36.7197C26.7305 36.5854 26.431 36.4305 26.1676 36.2498C25.8939 36.0691 25.6409 35.8573 25.4137 35.6301C25.1865 35.3926 24.9851 35.1499 24.8044 34.8762C24.634 34.6129 24.4687 34.3134 24.3345 33.9932C24.3241 33.9829 24.3241 33.9674 24.3138 33.9571C24.195 33.6679 24.1073 33.3581 24.0401 33.0379C23.9782 32.7023 23.942 32.3666 23.942 32.0103C23.942 31.654 23.9782 31.3132 24.0401 30.9827C24.1021 30.6471 24.2054 30.3269 24.3293 30.0223C24.4636 29.7021 24.6185 29.4026 24.7992 29.1393C24.9696 28.8656 25.1813 28.6126 25.4085 28.3853C25.6461 28.1478 25.8888 27.9516 26.1625 27.7657C26.4258 27.5953 26.7253 27.43 27.0455 27.2906C27.0558 27.2803 27.0713 27.2803 27.0816 27.27C27.3811 27.1512 27.6909 27.0634 28.0059 26.9963C28.3416 26.9343 28.6772 26.8982 29.0335 26.8982C29.3898 26.8982 29.7306 26.9343 30.0611 26.9963C30.3968 27.0583 30.7169 27.1615 31.0216 27.2855C31.3417 27.4197 31.6412 27.5746 31.9046 27.7605C32.1783 27.9413 32.4313 28.153 32.6585 28.3802C32.8857 28.6177 33.0871 28.8604 33.2678 29.1341C33.4382 29.3974 33.6035 29.697 33.7377 30.0171C33.7481 30.0274 33.7481 30.0429 33.7584 30.0533C33.8772 30.3424 33.9649 30.6523 34.0321 30.9724C34.0992 31.3081 34.1353 31.6437 34.1353 32Z" fill="white" stroke="white" stroke-width="0.5" stroke-miterlimit="2.6131"/>
</svg>
