<svg width="66" height="64" viewBox="0 0 66 64" fill="none" xmlns="http://www.w3.org/2000/svg">
<path d="M32.1922 0H32.197V0.00106797C35.3486 0.00160196 38.3944 0.457627 41.2694 1.3072C41.7292 1.44283 42.1932 1.59235 42.6604 1.75361C45.0249 2.57168 47.2602 3.65728 49.3305 4.97303C49.4763 5.0654 49.5195 5.25871 49.4277 5.40449C49.4181 5.4189 49.4068 5.43332 49.3956 5.44614L47.1059 8.382C47.0044 8.51229 46.8197 8.54006 46.6851 8.44875L46.6798 8.44555C46.0977 8.08617 45.4965 7.74602 44.8792 7.42616C44.2571 7.1047 43.6248 6.80674 42.9835 6.53494L42.9824 6.5344C39.6685 5.12842 36.0219 4.35093 32.1916 4.35093H32.1884V4.34986C28.3725 4.34986 24.735 5.12468 21.4275 6.52373C20.8871 6.75227 20.3569 6.99684 19.8389 7.25582C17.1652 8.59293 14.7366 10.3535 12.6407 12.4494L12.6386 12.4515L12.6242 12.4649C11.9289 13.1612 11.2705 13.8944 10.6527 14.6612C10.0311 15.4328 9.44857 16.2396 8.91084 17.0769C6.14639 21.3809 4.54229 26.5029 4.54229 31.9997V32.0029H4.54122C4.54122 35.8188 5.31604 39.4563 6.71509 42.7639C6.94363 43.3048 7.1882 43.8345 7.44718 44.3525C8.78429 47.0256 10.5448 49.4547 12.6413 51.5506L12.6434 51.5527L12.6552 51.565C13.3515 52.2608 14.0857 52.9198 14.8531 53.5381C15.6247 54.1602 16.4315 54.7423 17.2693 55.28C21.5733 58.0444 26.6958 59.6485 32.1922 59.6485H32.1954V59.6501C36.0123 59.6496 39.6488 58.8753 42.9563 57.4763C43.4972 57.2477 44.0269 57.0032 44.5449 56.7442C47.2186 55.4071 49.6477 53.6465 51.743 51.5506L51.7457 51.5479L51.7617 51.5325C52.4559 50.8367 53.1138 50.1046 53.7311 49.3388C54.3532 48.5672 54.9352 47.7598 55.4729 46.9225C58.2379 42.6186 59.8415 37.4966 59.8415 32.0003V31.9949H59.8431C59.8426 29.6886 59.559 27.4448 59.0245 25.3003C58.9359 24.9431 58.8424 24.5965 58.7452 24.2612C58.2315 22.4953 57.5453 20.8015 56.7086 19.2001C56.636 19.0618 56.6776 18.8941 56.8004 18.8044L59.7593 16.465C59.8938 16.3582 60.0898 16.3811 60.1961 16.5162C60.2057 16.528 60.2137 16.5408 60.2206 16.5536H60.2217L60.2238 16.5579L60.227 16.5643C60.58 17.204 60.9137 17.8592 61.224 18.5272C61.5348 19.1958 61.8226 19.8755 62.0864 20.5639C63.4464 24.1159 64.1919 27.9724 64.1919 32.0008V32.004H64.1908C64.1903 36.4206 63.2943 40.63 61.6752 44.4571C61.413 45.0782 61.13 45.6917 60.8272 46.2956C59.2771 49.3954 57.2404 52.2064 54.8193 54.628L54.8172 54.6301L54.8055 54.6408C53.9981 55.4477 53.1474 56.2107 52.2578 56.9279C51.3644 57.6482 50.431 58.321 49.4629 58.9431C44.4808 62.1428 38.552 64.0005 32.1916 64.0005H32.1884V63.9995C27.7718 63.9989 23.5624 63.1029 19.7353 61.4838C19.1143 61.2217 18.5007 60.9381 17.8962 60.6353C14.797 59.0857 11.9855 57.0486 9.56391 54.628L9.56177 54.6253L9.54682 54.6098C8.74157 53.8035 7.97957 52.9545 7.26402 52.0664C6.54421 51.1731 5.87085 50.2397 5.24929 49.2716C2.04964 44.2884 0.191895 38.3601 0.191895 32.0003V31.9965H0.192963C0.193496 27.5799 1.08953 23.371 2.70804 19.5434C2.97077 18.9224 3.25378 18.3094 3.55655 17.7044C5.10618 14.6051 7.14334 11.7942 9.56391 9.37255L9.56604 9.37041L9.57993 9.35813C10.3862 8.55234 11.2369 7.78928 12.1249 7.0732C13.0188 6.35338 13.9517 5.68002 14.9203 5.05846C19.904 1.85721 25.8324 0 32.1922 0ZM49.8885 8.70346L58.8435 0.146847L59.4399 5.91765L65.8083 6.71382L56.2189 16.0057L51.5529 16.4062L32.9339 33.7234L31.2182 32.2459L48.8542 13.8233L49.8885 8.70346ZM32.1922 21.8711H32.2002V21.8721C32.8025 21.8727 33.3888 21.9245 33.9533 22.0238C34.0189 22.0355 34.1118 22.0531 34.2293 22.0772H34.2309C34.7008 22.1733 35.1611 22.3031 35.6081 22.4633C35.7704 22.5209 35.8548 22.6993 35.7966 22.8616C35.7854 22.8936 35.7683 22.9225 35.7485 22.9481L35.7491 22.9486L33.2495 26.1547C33.1795 26.2449 33.0684 26.285 32.9622 26.2711V26.2722L32.9478 26.27L32.8367 26.2572L32.8271 26.2556L32.731 26.2455L32.7229 26.2444C32.5563 26.23 32.3796 26.222 32.1922 26.222H32.189V26.2204C31.3928 26.2209 30.6324 26.3833 29.9414 26.6759C29.8271 26.7245 29.7161 26.7757 29.6098 26.8286C29.0534 27.1068 28.5461 27.4747 28.1066 27.9142L28.1045 27.9163L28.0901 27.9291C27.9491 28.0712 27.8156 28.2212 27.6896 28.3777C27.5598 28.5384 27.4381 28.7077 27.3254 28.8828C26.7487 29.781 26.4144 30.8517 26.4144 31.9997V32.0029H26.4128C26.4133 32.8002 26.5757 33.56 26.8683 34.2505C26.9169 34.3653 26.9682 34.4764 27.021 34.5821C27.2992 35.139 27.6677 35.6458 28.1066 36.0847L28.1088 36.0874L28.1216 36.1008C28.2636 36.2417 28.4137 36.3763 28.5701 36.5018C28.7309 36.6315 28.9001 36.7538 29.0753 36.8665C29.974 37.4427 31.0446 37.7775 32.1922 37.7775H32.1954V37.7785C32.9926 37.7785 33.753 37.6162 34.4429 37.3236C34.5577 37.275 34.6683 37.2237 34.7745 37.1709C35.3315 36.8921 35.8382 36.5242 36.2772 36.0847L36.2798 36.0821L36.2905 36.0719C36.3685 35.9934 36.4443 35.9139 36.5143 35.8354C36.5842 35.7569 36.6574 35.6688 36.7321 35.5737C37.0942 35.1145 37.3884 34.5997 37.5977 34.046C37.6217 33.9814 37.665 33.929 37.7189 33.8943L41.758 30.7C41.8931 30.5932 42.0886 30.6162 42.1954 30.7513C42.2327 30.7988 42.2536 30.8538 42.26 30.9099H42.2616L42.2642 30.9339L42.2653 30.9504L42.2781 31.0839V31.0877H42.2792L42.2909 31.2329V31.2356C42.3096 31.4919 42.3203 31.7466 42.3203 31.9997V32.0029H42.3187C42.3182 33.4004 42.0346 34.7321 41.5225 35.9432C41.4403 36.1381 41.35 36.3325 41.2539 36.5253C40.7621 37.5073 40.1181 38.3974 39.3529 39.1621L39.3508 39.1642L39.3337 39.1787C39.0817 39.4296 38.8168 39.6683 38.5407 39.891C38.2577 40.1185 37.9619 40.3321 37.6565 40.528C36.0791 41.5405 34.2037 42.1284 32.1916 42.1284H32.1884V42.1268C30.791 42.1263 29.4592 41.8427 28.2487 41.3306C28.0538 41.2484 27.8589 41.1582 27.6666 41.062C26.6846 40.5702 25.7945 39.9262 25.0298 39.1616L25.0277 39.1594L25.01 39.1402C24.7601 38.8887 24.523 38.6244 24.3009 38.3488C24.0729 38.0658 23.8598 37.7705 23.6633 37.4646C22.6509 35.8877 22.063 34.0118 22.063 32.0003V31.9965H22.064C22.0646 30.5996 22.3486 29.2679 22.8602 28.0573C22.943 27.8624 23.0327 27.668 23.1288 27.4753C23.6195 26.4949 24.2635 25.6052 25.0293 24.8395L25.0298 24.839L25.0293 24.8384L25.0314 24.8363C25.285 24.5832 25.5558 24.3402 25.842 24.1095C26.125 23.8815 26.4203 23.6685 26.7263 23.472C28.3047 22.459 30.1812 21.8711 32.1922 21.8711ZM32.7224 26.2444C32.5585 26.2241 32.4389 26.0789 32.449 25.9144L32.7224 26.2444ZM32.1922 10.8453H32.1975V10.8464C34.09 10.8469 35.9231 11.0957 37.6645 11.5608C37.948 11.6367 38.23 11.7184 38.5092 11.8059C39.943 12.2534 41.3132 12.8515 42.6001 13.5804C42.7496 13.6653 42.8025 13.8559 42.7176 14.0054C42.7096 14.0182 42.7016 14.0316 42.692 14.0433L42.6904 14.0449L40.3707 17.0203C40.2735 17.1442 40.101 17.1752 39.9686 17.0988L39.9611 17.0951C39.6472 16.9311 39.3198 16.7725 38.9797 16.623C38.6374 16.4719 38.2935 16.3331 37.9485 16.2071C36.1549 15.5524 34.2154 15.1951 32.1916 15.1951H32.1884V15.1941C29.8693 15.1941 27.6591 15.6656 25.6487 16.5157C25.3315 16.6503 25.009 16.7992 24.6832 16.9616L24.6587 16.9728C23.0444 17.7839 21.577 18.8492 20.3088 20.1169L20.3067 20.119L20.2944 20.1313C19.8741 20.5526 19.4753 20.998 19.1009 21.4626C18.7234 21.9314 18.3694 22.4221 18.0426 22.931C16.3632 25.5465 15.3886 28.6596 15.3886 31.9997V32.0029H15.3876C15.3876 34.322 15.8591 36.5328 16.7092 38.5427C16.848 38.8716 16.997 39.1941 17.154 39.5081C17.9662 41.132 19.0363 42.6079 20.3104 43.882L20.3125 43.8842C20.7408 44.313 21.1899 44.7166 21.6555 45.0915C22.1244 45.469 22.6151 45.8231 23.124 46.1499C25.7395 47.8298 28.8531 48.8038 32.1927 48.8038H32.1959V48.8049C34.515 48.8049 36.7257 48.3339 38.7362 47.4838C39.0651 47.3444 39.3876 47.1959 39.7016 47.0384C41.3255 46.2262 42.8014 45.1567 44.0755 43.882L44.0777 43.8799C44.5064 43.4511 44.9101 43.0025 45.285 42.5369C45.6625 42.0675 46.0166 41.5773 46.3434 41.0679C48.0238 38.4519 48.9983 35.3388 48.9983 31.9997H48.9973V31.9917H48.9983C48.9983 30.9553 48.9033 29.9385 48.7228 28.9528C48.6956 28.8054 48.6635 28.6442 48.6267 28.4727C48.4521 27.6531 48.2177 26.858 47.9309 26.0933C47.8796 25.9561 47.9309 25.8055 48.0468 25.7264L51.0708 23.3353C51.2059 23.2285 51.4013 23.2514 51.5076 23.3865C51.5236 23.4073 51.5364 23.4282 51.5465 23.4506L51.5492 23.4559L51.5513 23.4602L51.5519 23.4597C51.7094 23.8169 51.8611 24.1886 52.0058 24.5736C52.1483 24.9538 52.2797 25.3356 52.3977 25.7179C53.0145 27.7038 53.3471 29.8136 53.3471 31.9992V32.0024H53.3455C53.3455 34.9217 52.7533 37.7043 51.6832 40.2338C51.5102 40.6434 51.3223 41.0492 51.122 41.4497C50.0973 43.4992 48.7511 45.3574 47.1508 46.9573L47.1481 46.9594L47.1363 46.9706C46.6034 47.5019 46.0427 48.006 45.4564 48.4786C44.8658 48.9549 44.2485 49.3997 43.6088 49.8103C40.3141 51.926 36.3952 53.1536 32.1916 53.1536H32.1884C29.2691 53.1531 26.4865 52.5609 23.9565 51.4908C23.5469 51.3173 23.1411 51.1298 22.7406 50.9296C20.6917 49.9043 18.8329 48.5587 17.2325 46.9583L17.2304 46.9562L17.2154 46.9402C16.6852 46.4088 16.1827 45.8492 15.7117 45.264C15.2354 44.6734 14.7906 44.0561 14.3794 43.4164C12.2637 40.1222 11.0361 36.2027 11.0361 31.9997V31.9965H11.0372C11.0377 29.0772 11.6304 26.2946 12.7006 23.7646C12.8736 23.355 13.061 22.9492 13.2612 22.5487C14.2854 20.5008 15.6316 18.6431 17.232 17.0422L17.2325 17.0417L17.232 17.0411L17.2341 17.039L17.248 17.0262C17.7798 16.4949 18.3405 15.9919 18.9258 15.5203C19.5169 15.044 20.1337 14.5992 20.7734 14.1886C24.0691 12.0729 27.9891 10.8453 32.1922 10.8453Z" fill="white"/>
</svg>
