<svg width="55" height="64" viewBox="0 0 55 64" fill="none" xmlns="http://www.w3.org/2000/svg">
<path fill-rule="evenodd" clip-rule="evenodd" d="M0.460729 50.5208C-0.304896 53.5104 0.387812 56.8802 2.23677 59.776C4.60135 47.4635 19.0961 52.6979 11.6534 64C18.0961 63.4792 21.5753 58.5052 21.4399 52.3802C21.3774 49.4948 21.4399 47.9271 21.893 46.6146C22.1046 46.0199 22.3973 45.4573 22.7628 44.9427C22.4543 44.2142 22.2933 43.4318 22.2889 42.6406V42.4896C22.302 41.586 22.5155 40.6966 22.9139 39.8854L19.0441 36.1198L17.9711 37.5417C16.9192 38.7929 15.7584 39.9485 14.5024 40.9948C13.7578 41.4604 12.9537 41.8231 12.1118 42.0729C6.92427 43.849 2.05448 44.3281 0.460729 50.5208ZM30.7524 39.5833L7.83573 17.2708L4.71073 16.7188C4.33611 16.6483 3.99133 16.4668 3.72115 16.1979L1.05969 13.5938C0.700177 13.2423 0.494503 12.7628 0.48767 12.2601C0.480838 11.7574 0.673403 11.2725 1.02323 10.9115L4.23677 7.66667C4.59214 7.31236 5.07349 7.1134 5.57531 7.1134C6.07713 7.1134 6.55848 7.31236 6.91385 7.66667L9.27323 10.0052C9.53758 10.2642 9.71888 10.596 9.79406 10.9583L10.8357 14.7656L33.4868 36.8698L35.7941 34.5469C35.828 34.5122 35.8685 34.4847 35.9132 34.4659C35.958 34.4471 36.006 34.4374 36.0545 34.4374C36.103 34.4374 36.151 34.4471 36.1957 34.4659C36.2404 34.4847 36.281 34.5122 36.3149 34.5469L37.8201 36.0365C37.884 36.0986 37.9229 36.182 37.9295 36.2708C37.992 36.7344 38.0284 37.1094 38.0649 37.4271C38.143 38.2031 38.1847 38.5938 38.3253 38.7292C38.4659 38.8646 38.8461 38.8854 39.6014 38.9375C39.9243 38.9375 40.3149 38.9896 40.8357 39.0417C40.9206 39.0479 41.0002 39.085 41.0597 39.1458L52.6326 50.8125C53.5676 51.5737 54.2508 52.5996 54.5928 53.7557C54.9348 54.9118 54.9197 56.1443 54.5493 57.2917C54.2725 58.1481 53.8122 58.9337 53.2003 59.5938C52.5939 60.2537 51.8411 60.7621 51.0024 61.0781C49.0493 61.8021 46.6066 61.4219 44.2993 59.0938L33.242 47.9167C33.1813 47.8544 33.1429 47.7738 33.1326 47.6875C33.0389 47.0573 32.9816 46.5469 32.9347 46.125C32.8357 45.2865 32.7836 44.849 32.617 44.6875C32.4503 44.526 31.9607 44.4948 30.9816 44.4635C30.643 44.4635 30.2472 44.4635 29.7836 44.4167C29.6937 44.4127 29.6083 44.3756 29.5441 44.3125L28.0649 42.849C27.9962 42.7797 27.9576 42.6861 27.9576 42.5885C27.9576 42.491 27.9962 42.3974 28.0649 42.3281L30.7576 39.6094L30.7524 39.5833ZM36.7628 47.2083C36.6768 47.1231 36.6086 47.0217 36.562 46.91C36.5154 46.7982 36.4915 46.6784 36.4915 46.5573C36.4915 46.4362 36.5154 46.3164 36.562 46.2046C36.6086 46.0929 36.6768 45.9915 36.7628 45.9063C36.9365 45.7336 37.1715 45.6366 37.4165 45.6366C37.6614 45.6366 37.8964 45.7336 38.0701 45.9063L48.0701 56.0417C48.2442 56.2143 48.3425 56.4491 48.3435 56.6942C48.3444 56.9394 48.248 57.1749 48.0753 57.349C47.9026 57.523 47.6679 57.6213 47.4227 57.6223C47.1776 57.6233 46.9421 57.5268 46.768 57.3542L36.7628 47.2083ZM39.5128 44.4271C39.3388 44.2551 39.2402 44.021 39.2387 43.7764C39.2372 43.5317 39.333 43.2964 39.505 43.1224C39.677 42.9483 39.911 42.8498 40.1557 42.8483C40.4004 42.8468 40.6356 42.9426 40.8097 43.1146L50.8357 53.2604C50.9219 53.3456 50.9905 53.4469 51.0375 53.5585C51.0845 53.6702 51.1091 53.79 51.1098 53.9111C51.1106 54.0323 51.0874 54.1524 51.0417 54.2646C50.996 54.3768 50.9287 54.4789 50.8435 54.5651C50.7584 54.6513 50.6571 54.7199 50.5454 54.7669C50.4338 54.8139 50.314 54.8385 50.1928 54.8392C50.0717 54.84 49.9516 54.8168 49.8394 54.7711C49.7271 54.7254 49.625 54.6581 49.5389 54.5729L39.5128 44.4271ZM35.0493 28.8333L38.143 24.7865C41.867 19.7292 51.5753 22.7031 53.9555 13.4583C54.7159 10.4896 54.0232 7.125 52.1899 4.22396C49.8253 16.5365 35.3357 11.3021 42.7784 0C36.3357 0.520833 32.8566 5.49479 32.992 11.6198C33.0545 14.3073 33.8097 16.5 31.2628 19.9063L28.2784 23.8698L33.7472 29.1979C34.166 29.0275 34.6028 28.9052 35.0493 28.8333Z" fill="white"/>
</svg>
